<svg xmlns="http://www.w3.org/2000/svg" viewBox="0 0 25.334 25.334">
  <defs>
    <style>
      .a {
        fill: #fff;
      }

      .b {
        fill: #4285f4;
      }

      .c {
        fill: #34a853;
      }

      .d {
        fill: #188038;
      }

      .e {
        fill: #fbbc04;
      }

      .f {
        fill: #1967d2;
      }

      .g {
        fill: #ea4335;
      }
    </style>
  </defs>
  <title>Asset 9</title>
  <g>
    <rect class="a" x="6" y="6" width="13.334" height="13.334"/>
    <path class="b" d="M8.735,16.344A2.579,2.579,0,0,1,7.7,14.865l1.156-.476a1.76,1.76,0,0,0,.55.93,1.418,1.418,0,0,0,.947.328,1.461,1.461,0,0,0,.975-.345,1.1,1.1,0,0,0,.408-.878,1.088,1.088,0,0,0-.43-.89,1.665,1.665,0,0,0-1.076-.345H9.565V12.044h.6a1.461,1.461,0,0,0,.935-.3.988.988,0,0,0,.38-.822.911.911,0,0,0-.34-.742,1.315,1.315,0,0,0-.861-.278,1.157,1.157,0,0,0-.81.272,1.6,1.6,0,0,0-.437.668l-1.145-.477a2.544,2.544,0,0,1,.838-1.138,2.421,2.421,0,0,1,1.564-.493,2.859,2.859,0,0,1,1.263.271,2.162,2.162,0,0,1,.878.754,1.917,1.917,0,0,1,.317,1.081,1.768,1.768,0,0,1-.295,1.037,2.04,2.04,0,0,1-.725.652V12.6a2.2,2.2,0,0,1,.93.725,1.9,1.9,0,0,1,.363,1.167,2.183,2.183,0,0,1-.345,1.213,2.39,2.39,0,0,1-.951.838,3,3,0,0,1-1.365.307A2.829,2.829,0,0,1,8.735,16.344Z"/>
    <polygon class="b" points="15.841 10.604 14.571 11.522 13.936 10.559 16.214 8.915 17.087 8.915 17.087 16.667 15.841 16.667 15.841 10.604"/>
    <path class="c" d="M19.334,19.334H6v6H19.334Z"/>
    <path class="b" d="M19.334,0H2A2,2,0,0,0,0,2V19.334H6V6H19.334Z"/>
    <path class="d" d="M0,19.334v4a2,2,0,0,0,2,2H6v-6Z"/>
    <path class="e" d="M25.334,6h-6V19.334h6Z"/>
    <path class="f" d="M25.334,6V2a2,2,0,0,0-2-2h-4V6Z"/>
    <path class="g" d="M19.334,25.334l6-6h-6Z"/>
  </g>
</svg>
