<svg width="48" height="48" viewBox="0 0 48 48" xmlns="http://www.w3.org/2000/svg" xmlns:xlink="http://www.w3.org/1999/xlink"><defs><path d="M43 5H5a3 3 0 0 0-3 3v32a3 3 0 0 0 3 3h38a3 3 0 0 0 3-3V8a3 3 0 0 0-3-3z" id="a"/><linearGradient x1="49.994%" y1="1.387%" x2="49.994%" y2="101.044%" id="c"><stop stop-color="#BF360C" stop-opacity=".2" offset="0%"/><stop stop-color="#BF360C" stop-opacity=".02" offset="100%"/></linearGradient><path d="M43 5H5a3 3 0 0 0-3 3v32a3 3 0 0 0 3 3h38a3 3 0 0 0 3-3V8a3 3 0 0 0-3-3z" id="d"/><radialGradient cx="3.409%" cy="2.344%" fx="3.409%" fy="2.344%" r="138.294%" gradientTransform="matrix(.86364 0 0 1 .005 0)" id="f"><stop stop-color="#FFF" stop-opacity=".1" offset="0%"/><stop stop-color="#FFF" stop-opacity="0" offset="100%"/></radialGradient></defs><g fill="none" fill-rule="evenodd"><path d="M0 0h48v48H0z"/><mask id="b" fill="#fff"><use xlink:href="#a"/></mask><path fill="#0F9D58" fill-rule="nonzero" mask="url(#b)" d="M6 9h36v30H6z"/><path d="M32 25a2.25 2.25 0 1 0 0-4.5 2.25 2.25 0 0 0 0 4.5zm0 1.5c-2.41 0-5 1.277-5 2.858V31h10v-1.642c0-1.58-2.59-2.858-5-2.858zM16 25a2.25 2.25 0 1 0 0-4.5 2.25 2.25 0 0 0 0 4.5zm0 1.5c-2.41 0-5 1.277-5 2.858V31h10v-1.642c0-1.58-2.59-2.858-5-2.858z" fill="#57BB8A" fill-rule="nonzero" mask="url(#b)"/><path d="M24.003 23A3 3 0 1 0 21 20c0 1.657 1.345 3 3.003 3zM24 25c-3.375 0-7 1.79-7 4v2h14v-2c0-2.21-3.625-4-7-4z" fill="#F7F7F7" fill-rule="nonzero" mask="url(#b)"/><path fill="#F1F1F1" fill-rule="nonzero" mask="url(#b)" d="M28 37h9v2h-9z"/><path d="M43 5H5a3 3 0 0 0-3 3v32a3 3 0 0 0 3 3h38a3 3 0 0 0 3-3V8a3 3 0 0 0-3-3zm-1 34H6V9h36v30z" fill="#F4B400" fill-rule="nonzero" mask="url(#b)"/><path d="M43 5H5a3 3 0 0 0-3 3v.25a3 3 0 0 1 3-3h38a3 3 0 0 1 3 3V8a3 3 0 0 0-3-3z" fill="#FFF" fill-rule="nonzero" opacity=".2" mask="url(#b)"/><path d="M43 42.75H5a3 3 0 0 1-3-3V40a3 3 0 0 0 3 3h38a3 3 0 0 0 3-3v-.25a3 3 0 0 1-3 3z" fill="#BF360C" fill-rule="nonzero" opacity=".2" mask="url(#b)"/><path fill="url(#c)" fill-rule="nonzero" mask="url(#b)" d="M36.985 39h-9l3.998 4h8.994z"/><path fill="#263238" fill-rule="nonzero" opacity=".2" mask="url(#b)" d="M6 8.75h36V9H6z"/><mask id="e" fill="#fff"><use xlink:href="#d"/></mask><path fill="#FFF" fill-rule="nonzero" opacity=".2" mask="url(#e)" d="M6 39h36v.25H6z"/><path d="M43 5H5a3 3 0 0 0-3 3v32a3 3 0 0 0 3 3h38a3 3 0 0 0 3-3V8a3 3 0 0 0-3-3z" fill="url(#f)" fill-rule="nonzero" mask="url(#e)"/></g></svg>